<svg width="36" height="36" viewBox="0 0 36 36" fill="none" xmlns="http://www.w3.org/2000/svg">
<path d="M7.5 28.5H9.6375L24.3 13.8375L22.1625 11.7L7.5 26.3625V28.5ZM4.5 31.5V25.125L24.3 5.3625C24.6 5.0875 24.9315 4.875 25.2945 4.725C25.6575 4.575 26.0385 4.5 26.4375 4.5C26.8365 4.5 27.224 4.575 27.6 4.725C27.976 4.875 28.301 5.1 28.575 5.4L30.6375 7.5C30.9375 7.775 31.1565 8.1 31.2945 8.475C31.4325 8.85 31.501 9.225 31.5 9.6C31.5 10 31.4315 10.3815 31.2945 10.7445C31.1575 11.1075 30.9385 11.4385 30.6375 11.7375L10.875 31.5H4.5ZM23.2125 12.7875L22.1625 11.7L24.3 13.8375L23.2125 12.7875Z" fill="#3DC864"/>
</svg>
